<svg width="40" height="40" viewBox="0 0 40 40" fill="none" xmlns="http://www.w3.org/2000/svg">
<circle cx="20" cy="20" r="20" fill="white"/>
<path d="M20 11.5C18.5104 11.5 17.1211 11.8796 15.832 12.6387C14.5859 13.3548 13.6048 14.3359 12.8887 15.582C12.1296 16.8711 11.75 18.2604 11.75 19.75C11.75 21.2396 12.1296 22.6289 12.8887 23.918C13.6048 25.1641 14.5859 26.1523 15.832 26.8828C17.1211 27.6276 18.5104 28 20 28C21.4896 28 22.8789 27.6276 24.168 26.8828C25.4141 26.1523 26.4023 25.1641 27.1328 23.918C27.8776 22.6289 28.25 21.2396 28.25 19.75C28.25 18.2604 27.8776 16.8711 27.1328 15.582C26.4023 14.3359 25.4141 13.3548 24.168 12.6387C22.8789 11.8796 21.4896 11.5 20 11.5ZM20 12.875C21.2461 12.875 22.4062 13.1901 23.4805 13.8203C24.5117 14.4219 25.3281 15.2383 25.9297 16.2695C26.5599 17.3438 26.875 18.5039 26.875 19.75C26.875 20.9961 26.5599 22.1562 25.9297 23.2305C25.3281 24.2617 24.5117 25.0781 23.4805 25.6797C22.4062 26.3099 21.2461 26.625 20 26.625C18.7539 26.625 17.5938 26.3099 16.5195 25.6797C15.4883 25.0781 14.6719 24.2617 14.0703 23.2305C13.4401 22.1562 13.125 20.9961 13.125 19.75C13.125 18.5039 13.4401 17.3438 14.0703 16.2695C14.6719 15.2383 15.4883 14.4219 16.5195 13.8203C17.5938 13.1901 18.7539 12.875 20 12.875ZM20 15.625C19.4987 15.625 19.0404 15.7539 18.625 16.0117C18.2096 16.2552 17.873 16.5846 17.6152 17C17.3717 17.4154 17.25 17.8737 17.25 18.375H18.625C18.625 17.9883 18.7539 17.666 19.0117 17.4082C19.2839 17.1361 19.6133 17 20 17C20.3867 17 20.709 17.1361 20.9668 17.4082C21.2389 17.666 21.375 17.9883 21.375 18.375C21.375 18.6328 21.2962 18.8691 21.1387 19.084C20.9811 19.2988 20.7806 19.4492 20.5371 19.5352L20.2578 19.6211C19.9714 19.707 19.7422 19.8717 19.5703 20.1152C19.3984 20.3587 19.3125 20.6309 19.3125 20.9316V21.8125H20.6875V20.9316L20.9668 20.8457C21.4967 20.6738 21.9264 20.3587 22.2559 19.9004C22.5853 19.4421 22.75 18.9336 22.75 18.375C22.75 17.8737 22.6211 17.4154 22.3633 17C22.1198 16.5846 21.7904 16.2552 21.375 16.0117C20.9596 15.7539 20.5013 15.625 20 15.625ZM19.3125 22.5V23.875H20.6875V22.5H19.3125Z" fill="#FE8C12"/>
</svg>
