<svg width="87" height="194" viewBox="0 0 87 194" fill="none" xmlns="http://www.w3.org/2000/svg">
<path d="M13.693 44.1289C23.0364 47.7696 33.5694 47.2676 42.7335 43.1968C45.0231 42.1148 47.3126 41.0328 49.3331 39.4427C51.3597 38.1097 53.3742 36.2626 55.1317 34.4214C56.8893 32.5803 58.1148 29.9799 57.0268 27.4333C56.2019 25.1378 54.1097 23.6433 51.7843 23.183C48.9388 22.4775 45.8722 23.3204 43.0626 24.1573C40.767 24.9822 38.4775 26.0641 36.194 27.4031C31.8779 29.8181 27.8308 32.7412 24.0587 36.4295C16.5086 43.5491 11.0626 52.6772 7.94802 62.5227C4.60026 73.4024 4.88103 85.4837 10.255 95.3891C15.085 104.021 23.4719 110.77 33.5206 111.566C38.4165 111.966 43.2825 111.081 47.6046 108.923C49.8941 107.842 51.6576 106.257 53.4211 104.673C55.1786 102.832 56.153 100.495 55.3221 97.9422C54.2342 95.3957 52.142 93.9012 49.5595 93.4468C46.9711 92.7354 44.1555 93.3152 41.597 93.8891C36.994 95.0248 32.409 96.9317 28.613 99.5918C20.7699 105.175 15.055 113.795 13.7337 123.342C12.4185 133.145 14.9709 143.374 21.0682 151.205C22.6583 153.225 24.2424 154.989 26.0776 156.489C26.8666 157.242 28.122 155.927 27.3329 155.174C20.2493 149.166 15.9274 140.265 15.2042 131.28C14.475 122.038 17.6135 113.221 23.8844 106.389C26.8913 102.975 30.4303 100.321 34.5012 98.4262C36.5337 97.3502 38.5722 96.5313 40.8737 95.9634C43.1751 95.3955 45.7337 94.8217 48.0531 95.0249C50.3725 95.2282 52.7098 96.2027 53.7918 98.4922C54.8738 100.782 53.3733 102.617 51.6098 104.201C48.3398 107.363 44.0118 109.264 39.654 109.88C35.2961 110.496 30.4002 110.095 26.2456 108.391C22.091 106.687 18.1636 103.692 15.2524 100.159C8.63506 92.0833 6.59077 81.5861 7.90006 71.5254C9.20936 61.4646 13.6152 51.8463 19.8622 43.9855C25.607 36.6508 33.4381 30.5534 42.0941 26.7516C44.6407 25.6637 47.4444 24.5698 50.2779 24.7611C52.5973 24.9644 54.9406 26.1959 55.7655 28.4914C56.5964 31.0439 55.1078 33.3932 53.3444 34.9773C51.5809 36.5614 49.8174 38.1455 47.7908 39.4786C39.9358 44.5477 29.9588 46.8371 20.6692 45.5099C18.3498 45.3066 16.2814 44.8403 13.9501 44.1229C13.424 43.6208 13.43 43.8778 13.693 44.1289Z" fill="#FE8C12"/>
<path d="M28.4363 158.24C28.9683 158.999 29.5003 159.758 30.0323 160.517C30.2953 160.768 30.8154 161.014 31.0665 160.75C31.3176 160.487 31.5627 159.967 31.2996 159.716C30.7676 158.957 30.2356 158.198 29.4465 157.445C28.9145 156.686 28.1613 157.475 28.4363 158.24Z" fill="#FE8C12"/>
<path d="M34.2202 163.756C34.4892 164.265 35.0152 164.767 35.5413 165.269C36.0673 165.771 36.3363 166.279 36.8564 166.524C37.3765 166.769 38.1357 166.237 37.8607 165.472C37.5917 164.964 37.0656 164.462 36.5456 164.217C36.0195 163.715 35.4995 163.469 34.9734 162.967C34.4534 162.722 33.9512 163.248 34.2202 163.756Z" fill="#FE8C12"/>
<path d="M41.0549 170.031C41.832 170.271 42.6092 170.51 43.3923 171.006C44.1753 171.502 44.7014 172.004 45.4785 172.243C45.7356 172.237 45.9866 171.974 45.9747 171.46C45.6997 170.695 44.6536 169.948 44.1335 169.703C43.3504 169.207 42.3163 168.973 41.2881 168.997C40.511 168.758 40.2778 169.792 41.0549 170.031Z" fill="#FE8C12"/>
<path d="M49.1231 173.953C49.9062 174.449 50.9404 174.682 51.7175 174.921C52.4946 175.16 53.5347 175.65 54.2999 175.375C54.814 175.363 54.7961 174.592 54.5331 174.341C54.007 173.839 52.9728 173.606 52.1957 173.367C51.1615 173.134 50.3844 172.894 49.3503 172.661C48.8421 172.93 48.603 173.707 49.1231 173.953Z" fill="#FE8C12"/>
<path d="M58.4555 177.085C60.0038 177.306 61.8151 177.778 63.3574 177.742C64.1285 177.724 64.3557 176.433 63.5785 176.194C62.0243 175.716 60.2309 176.015 58.4316 176.056C58.1746 176.062 57.9414 177.097 58.4555 177.085Z" fill="#FE8C12"/>
<path d="M68.0323 179.686C69.3175 179.657 70.3517 179.89 71.631 179.603C72.6592 179.579 72.6293 178.294 71.5951 178.061C70.3039 177.833 69.2817 178.114 67.9965 178.144C66.9742 178.425 67.0041 179.71 68.0323 179.686Z" fill="#FE8C12"/>
<path d="M69.3583 170.397C70.9006 170.361 71.9468 171.109 72.9988 172.113C74.308 173.111 75.6231 174.367 76.9322 175.365C78.2414 176.363 79.5505 177.362 80.8596 178.36C81.3857 178.862 82.1688 179.358 82.6948 179.86C82.9579 180.112 83.4779 180.357 83.7409 180.608C84.004 180.859 84.524 181.104 84.53 181.361C84.524 181.104 84.524 181.104 84.5181 180.847C84.5181 180.847 84.5121 180.59 84.5181 180.847C84.5181 180.847 84.261 180.853 84.267 181.11C84.0099 181.116 83.7589 181.379 83.7589 181.379C83.2507 181.648 82.9937 181.654 82.4856 181.923C81.7204 182.198 80.7041 182.736 79.939 183.011C78.1576 183.824 76.6332 184.631 74.8518 185.444C71.546 187.064 67.9832 188.69 64.6714 190.052C63.6552 190.59 64.1991 191.864 65.2273 191.84C66.2555 191.816 67.5228 191.015 67.756 189.981C67.744 189.467 67.481 189.216 66.9729 189.485C66.4648 189.754 65.6996 190.029 65.1855 190.041C65.4545 190.549 65.4724 191.32 65.7414 191.828C71.3367 189.126 76.938 186.681 82.5334 183.979C83.2985 183.704 83.8067 183.435 84.5659 182.903C85.074 182.634 85.8391 182.359 86.3413 181.833C87.3396 180.524 85.2593 179.544 84.4703 178.79C82.109 176.788 79.4967 175.048 77.1355 173.046C75.8264 172.047 74.5172 171.049 73.2081 170.051C71.9049 169.309 70.6077 168.825 69.3285 169.112C68.5573 169.13 68.5872 170.415 69.3583 170.397Z" fill="#FE8C12"/>
<path d="M69.0708 169.373C69.0708 169.373 68.8197 169.636 69.0708 169.373C68.8197 169.636 68.8197 169.636 68.8197 169.636C68.8256 169.893 68.8256 169.893 68.8316 170.15C68.8376 170.407 68.5925 170.927 68.5985 171.184C68.3594 171.962 68.3773 172.733 68.1381 173.51C67.9169 175.058 67.4387 176.612 67.2175 178.161C66.7392 179.715 66.5121 181.006 66.0338 182.56C65.7947 183.337 65.5496 183.857 65.3105 184.635C65.0713 185.412 64.5752 186.195 64.8501 186.96C64.8621 187.474 65.3822 187.719 65.8963 187.707C66.6614 187.432 66.6435 186.661 66.8826 185.884C67.3609 184.33 67.8391 182.776 68.0663 181.484C68.7657 178.382 69.4712 175.536 69.9136 172.44C70.1467 171.406 70.8641 169.074 69.5669 168.59C68.7898 168.351 67.7855 169.403 68.5746 170.156C69.0947 170.401 69.3338 169.624 69.0708 169.373Z" fill="#FE8C12"/>
<path d="M65.8285 184.373C64.8302 185.682 64.0949 187.243 63.6167 188.797C63.3716 189.317 63.1324 190.094 63.4014 190.602C63.6704 191.11 64.1905 191.355 64.6986 191.086C64.9557 191.08 64.9497 190.823 64.9437 190.566C64.9318 190.052 64.6628 189.544 64.1546 189.813C63.8976 189.819 63.6525 190.339 64.1726 190.584C64.1666 190.327 64.1666 190.327 63.9036 190.076C64.1606 190.07 64.1606 190.07 64.4117 189.807L64.1546 189.813C64.4236 190.321 64.6807 190.315 64.6688 189.801C64.6628 189.544 64.6568 189.287 64.9139 189.281C65.159 188.761 65.147 188.247 65.3921 187.727C65.6253 186.693 66.1095 185.396 66.3426 184.361C66.3426 184.361 65.8226 184.116 65.8285 184.373Z" fill="#FE8C12"/>
<path d="M69.213 175.293C69.2071 175.036 68.95 175.042 68.693 175.048C68.1849 175.317 68.4479 175.568 68.7109 175.819C68.7169 176.076 69.2369 176.321 69.488 176.058C70.2592 176.04 71.2694 175.245 72.0346 174.97C72.7938 174.438 73.816 174.157 74.5752 173.625C74.8263 173.362 74.8203 173.105 74.8143 172.848C74.8143 172.848 74.8084 172.591 74.5513 172.597C74.2883 172.346 74.0313 172.352 73.7742 172.358C72.758 172.896 71.7417 173.434 70.7255 173.972C70.2173 174.241 69.7092 174.51 69.4581 174.773C69.2071 175.036 68.693 175.048 68.7049 175.562C68.7049 175.562 68.962 175.556 69.213 175.293C68.956 175.299 68.956 175.299 68.956 175.299C68.962 175.556 69.219 175.55 69.213 175.293Z" fill="#FE8C12"/>
<path d="M67.0393 181.261C69.0777 180.442 70.8592 179.629 72.6346 178.559C73.6508 178.021 74.41 177.489 75.4263 176.951C75.9344 176.682 76.1855 176.419 76.6936 176.15C77.2017 175.881 77.4528 175.618 77.6979 175.098C77.949 174.835 77.68 174.326 77.1659 174.338C76.1377 174.362 75.3785 174.894 74.3622 175.432C73.346 175.97 72.5868 176.502 71.5706 177.04C69.7951 178.11 67.7566 178.929 66.2442 180.25C66.5132 180.758 66.5311 181.53 67.0393 181.261Z" fill="#FE8C12"/>
<path d="M67.1252 184.861C68.4045 184.574 69.4147 183.779 70.688 183.235C71.9613 182.691 72.9716 181.896 74.2449 181.352C75.5182 180.808 76.5285 180.013 77.8018 179.469C78.818 178.931 80.3483 178.381 81.0956 177.335C81.3467 177.072 81.3288 176.301 80.5576 176.319C79.2783 176.606 78.2681 177.401 77.2518 177.939C75.9845 178.74 74.9682 179.278 73.7009 180.079C71.4174 181.418 68.8708 182.506 67.1132 184.347C66.5992 184.359 66.8681 184.867 67.1252 184.861Z" fill="#FE8C12"/>
<path d="M65.8983 187.718C68.696 186.367 71.7567 185.267 74.5543 183.916C76.0847 183.366 77.352 182.565 78.8823 182.015C79.6475 181.74 80.4067 181.208 81.1719 180.933C81.9371 180.658 82.6963 180.126 83.4614 179.851C84.2206 179.319 83.6826 178.303 82.9174 178.578C81.3871 179.128 80.1198 179.929 78.5954 180.736C77.0711 181.543 75.8037 182.344 74.2734 182.894C71.4817 184.502 68.6841 185.853 65.8924 187.461C65.3723 187.216 65.6413 187.724 65.8983 187.718Z" fill="#FE8C12"/>
<path d="M11.0803 42.1369C10.5543 41.6347 10.0223 40.8756 9.25111 40.8935C8.99406 40.8995 8.47997 40.9114 8.48594 41.1684C8.23487 41.4315 8.50386 41.9396 8.50984 42.1966C8.77286 42.4477 9.03588 42.6988 9.54998 42.6868C9.813 42.9379 10.07 42.9319 10.5901 43.177C10.8472 43.1711 11.1042 43.1651 11.3553 42.9021C11.3493 42.645 11.3434 42.388 11.0803 42.1369Z" fill="#FE8C12"/>
<path d="M7.43506 40.1641C7.93124 39.381 7.65627 38.6158 7.3813 37.8507C6.84928 37.0915 5.80913 36.6012 5.04396 36.8762C4.79288 37.1392 4.54182 37.4023 4.5478 37.6593C4.55377 37.9164 4.82276 38.4245 5.0798 38.4185C5.5939 38.4066 5.5939 38.4066 6.11397 38.6517C6.37699 38.9027 6.38297 39.1598 6.38895 39.4168C5.89875 40.457 6.93889 40.9472 7.43506 40.1641Z" fill="#FE8C12"/>
<path d="M4.45003 33.5411C4.17506 32.776 4.15115 31.7478 3.87618 30.9826C3.60121 30.2174 3.32027 29.1952 2.8002 28.9501C2.54315 28.9561 2.28611 28.9621 2.03503 29.2251C1.53886 30.0082 2.07683 31.0244 2.34583 31.5326C2.6208 32.2977 3.15284 33.0569 3.43379 34.0791C3.70279 34.5872 4.46198 34.0552 4.45003 33.5411Z" fill="#FE8C12"/>
<path d="M2.19633 25.1038C2.43546 24.3266 2.66862 23.2925 2.38767 22.2702C2.37572 21.7561 2.10672 21.248 2.10075 20.991C1.83175 20.4828 1.57471 20.4888 1.31169 20.2377C1.04866 19.9867 0.540547 20.2557 0.546521 20.5127C0.558469 21.0268 0.301421 21.0328 0.570418 21.5409C0.576392 21.798 0.845395 22.3061 0.851369 22.5631C1.12634 23.3283 1.14424 24.0995 1.16217 24.8706C0.923041 25.6477 1.95123 25.6238 2.19633 25.1038Z" fill="#FE8C12"/>
<path d="M2.77845 17.1278C3.02355 16.6077 3.26267 15.8306 3.25072 15.3165C3.49582 14.7964 3.73495 14.0193 3.46595 13.5111C3.19696 13.003 2.67689 12.7579 2.43179 13.278C1.92964 13.8041 1.94159 14.3181 1.69649 14.8382C1.45737 15.6153 1.46931 16.1294 1.48723 16.9006C1.24213 17.4206 2.53933 17.9049 2.77845 17.1278Z" fill="#FE8C12"/>
<path d="M4.66123 9.35848C4.90036 8.58136 5.40251 8.05532 5.90466 7.52927C6.40681 7.00323 5.87477 6.24403 5.1096 6.519C3.83033 6.80592 3.34611 8.10311 3.37599 9.38835C3.38793 9.90244 4.67916 10.1296 4.66123 9.35848Z" fill="#FE8C12"/>
<path d="M7.3778 4.41625C7.6229 3.89618 7.87397 3.63316 8.3821 3.36416C8.89022 3.09516 9.14131 2.83214 8.87231 2.32402C8.86036 1.80992 8.34029 1.56481 7.83217 1.83381C6.80995 2.11475 6.05673 2.90382 5.82358 3.93799C5.82955 4.19504 5.84148 4.70913 6.35558 4.69718C6.88163 5.19933 7.1327 4.93632 7.3778 4.41625Z" fill="#FE8C12"/>
</svg>
