<svg width="1920" height="212" viewBox="0 0 1920 212" fill="none" xmlns="http://www.w3.org/2000/svg">
<g opacity="0.05">
<path d="M1560.64 422.06L1847.37 199.531L1852.82 203.764L1565.31 425.688L1560.64 422.06Z" fill="white"/>
<path d="M1931.5 154.176L1733.59 307.164L1735.93 308.979L1931.5 157.804L1931.5 154.176Z" fill="white"/>
<path d="M1931.5 60.4475L1761.64 192.272L1766.32 195.9L1931.5 68.3086L1931.5 60.4475Z" fill="white"/>
<path d="M1931.5 25.3805L1739.05 174.741L1743.72 178.369L1931.5 33.2415L1931.5 25.3805Z" fill="white"/>
<path d="M1788.13 155.99L1830.21 123.336L1832.54 125.15L1790.47 157.804L1788.13 155.99Z" fill="white"/>
<path d="M1931.5 4.82116L1816.96 93.7117L1819.3 95.5259L1931.5 9.05402L1931.5 4.82116Z" fill="white"/>
<path d="M1682.96 272.7L1920.6 88.2671L1922.94 90.6859L1685.29 274.514L1682.96 272.7Z" fill="white"/>
<path d="M1474.9 398.475L1725.01 204.366L1727.35 206.785L1477.24 400.289L1474.9 398.475Z" fill="white"/>
<path d="M1931.5 -29.0413L1800.6 71.9433L1802.94 73.7573L1931.5 -25.4131L1931.5 -29.0413Z" fill="white"/>
<path d="M1442.2 330.146L1728.93 108.221L1734.39 111.85L1446.88 334.378L1442.2 330.146Z" fill="white"/>
<path d="M1419.6 312.607L1706.33 90.6828L1711.79 94.3109L1424.28 316.84L1419.6 312.607Z" fill="white"/>
<path d="M1592.56 197.718L1843.45 4.21426L1845.78 6.0284L1594.89 199.532L1592.56 197.718Z" fill="white"/>
<path d="M1665.04 180.179L1707.89 147.525L1710.23 149.339L1668.15 181.993L1665.04 180.179Z" fill="white"/>
<path d="M1497.5 231.577L1626.06 132.407L1628.4 134.221L1499.83 233.391L1497.5 231.577Z" fill="white"/>
<path d="M1620.6 82.8262L1908.11 -139.098L1912.78 -135.47L1625.27 87.0591L1620.6 82.8262Z" fill="white"/>
<path d="M1598.04 65.2869L1884.77 -156.637L1890.22 -153.009L1602.71 68.915L1598.04 65.2869Z" fill="white"/>
<path d="M1647.1 47.1489L1689.17 13.8904L1691.51 15.7045L1649.44 48.9629L1647.1 47.1489Z" fill="white"/>
<path d="M1541.93 163.852L1779.57 -20.5815L1781.91 -18.7674L1544.26 165.666L1541.93 163.852Z" fill="white"/>
<path d="M1182.74 422.06L1470.25 199.531L1474.92 203.16L1188.19 425.688L1182.74 422.06Z" fill="white"/>
<path d="M1160.14 404.522L1447.65 181.993L1452.32 185.621L1164.81 408.15L1160.14 404.522Z" fill="white"/>
<path d="M1333.87 289.633L1583.98 95.5246L1586.32 97.3387L1336.21 291.447L1333.87 289.633Z" fill="white"/>
<path d="M1301.17 221.304L1587.9 -1.22496L1593.36 2.40331L1305.85 224.932L1301.17 221.304Z" fill="white"/>
<path d="M1278.57 203.765L1565.3 -18.7635L1570.76 -15.1354L1283.25 207.394L1278.57 203.765Z" fill="white"/>
<path d="M1451.52 88.869L1702.41 -105.239L1704.75 -103.425L1453.86 90.6831L1451.52 88.869Z" fill="white"/>
<path d="M1524.01 71.3382L1566.86 38.0797L1569.2 39.8939L1527.12 73.1523L1524.01 71.3382Z" fill="white"/>
<path d="M1327.64 185.022L1369.71 152.368L1372.05 154.182L1329.97 186.836L1327.64 185.022Z" fill="white"/>
<path d="M1356.46 122.736L1485.02 22.961L1487.36 24.7751L1358.8 124.55L1356.46 122.736Z" fill="white"/>
<path d="M1222.46 301.724L1460.11 117.896L1462.44 119.71L1224.8 303.538L1222.46 301.724Z" fill="white"/>
<path d="M1400.89 54.4046L1638.54 -130.028L1640.87 -127.61L1403.23 56.2188L1400.89 54.4046Z" fill="white"/>
<path d="M1041.71 312.614L1329.21 90.6898L1333.89 94.318L1046.38 316.242L1041.71 312.614Z" fill="white"/>
<path d="M1019.11 295.075L1306.62 73.1512L1311.29 76.7794L1023.78 298.704L1019.11 295.075Z" fill="white"/>
<path d="M1192.84 180.179L1442.95 -13.929L1445.29 -12.115L1195.18 181.993L1192.84 180.179Z" fill="white"/>
<path d="M1265.32 162.648L1307.39 129.995L1309.73 131.809L1267.66 164.462L1265.32 162.648Z" fill="white"/>
<path d="M1097.8 214.046L1226.36 114.271L1228.7 116.69L1100.13 215.86L1097.8 214.046Z" fill="white"/>
<path d="M963.016 393.64L1200.66 209.207L1203.78 211.021L965.353 395.454L963.016 393.64Z" fill="white"/>
<path d="M1160.14 111.851L1446.87 -110.074L1452.32 -106.445L1164.81 116.084L1160.14 111.851Z" fill="white"/>
<path d="M1137.54 94.3121L1424.27 -127.612L1429.72 -123.984L1142.21 98.5449L1137.54 94.3121Z" fill="white"/>
<path d="M1186.6 76.1732L1228.68 42.9148L1231.02 44.7288L1188.94 77.9873L1186.6 76.1732Z" fill="white"/>
<path d="M1215.47 13.2816L1344.03 -85.8889L1346.37 -84.0748L1217.81 15.0957L1215.47 13.2816Z" fill="white"/>
<path d="M1081.43 192.883L1319.07 8.44975L1321.41 10.2639L1083.77 194.697L1081.43 192.883Z" fill="white"/>
<path d="M699.643 433.553L986.374 211.024L991.828 214.653L704.318 437.182L699.643 433.553Z" fill="white"/>
<path d="M873.412 318.657L1123.52 124.549L1125.86 126.363L875.75 320.471L873.412 318.657Z" fill="white"/>
<path d="M900.673 203.765L1188.18 -18.7635L1192.86 -15.1354L906.127 207.394L900.673 203.765Z" fill="white"/>
<path d="M878.074 186.227L1165.58 -36.3021L1170.26 -32.6738L882.749 189.855L878.074 186.227Z" fill="white"/>
<path d="M1051.84 71.3382L1301.95 -122.77L1304.29 -120.956L1054.18 73.1524L1051.84 71.3382Z" fill="white"/>
<path d="M1124.29 53.1949L1166.36 20.5413L1168.7 22.3554L1126.62 55.6138L1124.29 53.1949Z" fill="white"/>
<path d="M927.176 167.483L969.25 134.83L971.588 136.644L929.513 169.297L927.176 167.483Z" fill="white"/>
<path d="M956.765 104.593L1084.55 5.42242L1087.66 7.23656L959.102 107.012L956.765 104.593Z" fill="white"/>
<path d="M821.984 284.193L1059.63 99.7598L1062.74 101.574L824.321 286.007L821.984 284.193Z" fill="white"/>
<path d="M1311.29 -215.9L1309.73 -216.505L1302.72 -216.505L1019.11 3.00064L1023.78 6.62892L1311.29 -215.9Z" fill="white"/>
<path d="M940.397 83.429L1178.04 -101.004L1180.38 -98.585L942.735 85.2432L940.397 83.429Z" fill="white"/>
<path d="M581.209 341.638L868.719 119.714L873.394 123.342L585.884 345.267L581.209 341.638Z" fill="white"/>
<path d="M558.611 324.099L846.121 102.175L850.796 105.803L563.286 327.728L558.611 324.099Z" fill="white"/>
<path d="M732.38 209.204L982.49 15.0954L984.828 17.5142L734.718 211.018L732.38 209.204Z" fill="white"/>
<path d="M804.823 191.673L846.898 159.019L849.235 160.833L807.161 193.487L804.823 191.673Z" fill="white"/>
<path d="M636.522 243.07L765.084 143.899L768.2 145.713L639.639 244.884L636.522 243.07Z" fill="white"/>
<path d="M759.64 94.3107L1047.15 -128.218L1051.82 -123.985L765.094 97.939L759.64 94.3107Z" fill="white"/>
<path d="M737.041 76.7801L1024.55 -145.749L1029.23 -141.516L741.716 80.4082L737.041 76.7801Z" fill="white"/>
<path d="M786.144 58.0288L828.219 25.375L830.556 27.1891L788.482 59.8428L786.144 58.0288Z" fill="white"/>
<path d="M680.951 174.739L918.595 -9.08882L921.711 -7.2748L683.289 177.158L680.951 174.739Z" fill="white"/>
<path d="M321.744 432.949L609.253 211.024L613.928 214.653L327.198 437.182L321.744 432.949Z" fill="white"/>
<path d="M299.145 415.41L586.655 193.486L591.33 197.114L304.599 419.643L299.145 415.41Z" fill="white"/>
<path d="M472.896 300.514L723.785 107.01L726.123 108.824L475.233 302.328L472.896 300.514Z" fill="white"/>
<path d="M440.178 232.79L727.687 10.2609L732.362 13.889L444.853 236.418L440.178 232.79Z" fill="white"/>
<path d="M417.579 215.251L704.309 -7.2783L709.763 -3.65002L422.253 218.879L417.579 215.251Z" fill="white"/>
<path d="M590.569 100.363L841.458 -93.7454L843.796 -91.9314L593.686 102.177L590.569 100.363Z" fill="white"/>
<path d="M663.791 82.2195L705.866 49.5657L708.204 51.3798L666.129 84.6382L663.791 82.2195Z" fill="white"/>
<path d="M466.681 196.507L508.755 163.854L511.093 165.668L469.018 198.321L466.681 196.507Z" fill="white"/>
<path d="M495.508 133.617L624.07 34.4464L626.407 36.2605L498.625 136.036L495.508 133.617Z" fill="white"/>
<path d="M361.507 313.217L599.15 128.784L601.488 130.598L363.844 315.031L361.507 313.217Z" fill="white"/>
<path d="M539.919 65.8905L777.562 -118.542L780.679 -116.728L542.256 67.7046L539.919 65.8905Z" fill="white"/>
<path d="M181.491 324.099L468.221 101.57L472.896 105.803L186.165 327.728L181.491 324.099Z" fill="white"/>
<path d="M158.151 306.561L445.661 84.0319L450.335 87.6601L163.605 310.189L158.151 306.561Z" fill="white"/>
<path d="M331.902 191.673L582.012 -2.43536L585.128 -0.621353L334.239 193.487L331.902 191.673Z" fill="white"/>
<path d="M404.345 174.133L447.199 140.875L449.537 143.294L406.683 175.947L404.345 174.133Z" fill="white"/>
<path d="M236.841 225.532L365.402 125.756L367.74 127.571L239.179 227.346L236.841 225.532Z" fill="white"/>
<path d="M299.145 123.343L586.655 -98.5812L591.33 -94.953L303.82 126.971L299.145 123.343Z" fill="white"/>
<path d="M276.546 105.804L564.056 -116.724L568.731 -112.492L281.221 109.433L276.546 105.804Z" fill="white"/>
<path d="M325.649 87.061L367.723 54.4072L370.061 56.2214L327.986 88.875L325.649 87.061Z" fill="white"/>
<path d="M354.495 24.7752L483.057 -74.9999L486.173 -73.1858L357.612 26.5894L354.495 24.7752Z" fill="white"/>
<path d="M220.475 204.368L458.118 19.9356L460.456 21.7497L222.812 206.183L220.475 204.368Z" fill="white"/>
<path d="M12.4192 329.545L262.529 136.041L264.867 137.855L14.7566 331.359L12.4192 329.545Z" fill="white"/>
<path d="M40.4964 214.646L327.227 -7.2783L331.902 -3.65002L45.1715 218.879L40.4964 214.646Z" fill="white"/>
<path d="M17.1183 197.115L304.628 -24.8097L309.303 -21.1815L22.5724 200.743L17.1183 197.115Z" fill="white"/>
<path d="M190.87 82.2182L440.98 -111.285L444.096 -109.471L193.207 84.0322L190.87 82.2182Z" fill="white"/>
<path d="M263.313 64.6873L305.387 32.0337L308.504 33.8477L265.65 66.5015L263.313 64.6873Z" fill="white"/>
<path d="M66.2021 178.969L109.056 145.71L111.393 147.524L68.5396 180.783L66.2021 178.969Z" fill="white"/>
<path d="M95.8088 116.085L224.37 16.9148L226.708 18.7288L98.1462 117.899L95.8088 116.085Z" fill="white"/>
<path d="M-16.4145 281.77L201.75 113.059L199.413 111.245L-16.4145 278.142L-16.4145 281.77Z" fill="white"/>
<path d="M158.151 14.4944L445.661 -208.035L450.335 -204.406L162.826 18.1226L158.151 14.4944Z" fill="white"/>
<path d="M420.698 -216.503L410.569 -216.503L135.526 -3.04416L140.201 0.583994L420.698 -216.503Z" fill="white"/>
<path d="M79.4421 94.9222L317.086 -89.5107L319.423 -87.6967L81.7797 96.7363L79.4421 94.9222Z" fill="white"/>
<path d="M-16.4143 137.246L123.834 28.4004L121.497 26.5863L-16.4143 133.618L-16.4143 137.246Z" fill="white"/>
<path d="M-16.3869 47.752L190.869 -113.098L186.194 -116.726L-16.3869 40.4955L-16.3869 47.752Z" fill="white"/>
<path d="M-16.39 12.6821L168.271 -130.631L163.596 -134.26L-16.39 4.821L-16.39 12.6821Z" fill="white"/>
<path d="M-16.3806 63.4746L60.7561 3.60951L58.4186 1.79549L-16.3806 59.8465L-16.3806 63.4746Z" fill="white"/>
</g>
</svg>
